<svg width="361" height="71" viewBox="0 0 361 71" fill="none" xmlns="http://www.w3.org/2000/svg">
<path d="M72.3266 70.3899V55.951C72.3266 55.951 42.3657 25.8096 42.1853 24.9072C41.9779 23.8705 42.4632 22.8244 43.2682 22.0194C44.0731 21.2145 45.0748 20.8467 46.156 21.117C46.8779 21.2975 62.2193 37.1803 62.2193 37.1803H72.3266V9.18875L81.9996 0H44.7121C44.7121 0 34.0633 0 25.4 8.66337C18 16.0633 18 24.7267 18 24.7267V43.1364L44.7121 70.3899H72.3266Z" fill="white"/>
<path d="M65.8942 16.7617C67.2084 19.4018 65.301 24.7171 65.1149 24.1586C64.8206 23.2756 63.9376 21.5097 63.349 20.6268C62.4817 19.326 61.5719 18.569 61.8483 17.0477C62.2172 15.0173 64.5801 14.1215 65.8942 16.7617Z" fill="black"/>
<path d="M113.6 43.0949C113.76 43.7349 113.84 44.5349 113.84 45.4949C113.84 46.4149 113.76 47.2149 113.6 47.8949H111.2C111.36 48.5349 111.44 49.3349 111.44 50.2949C111.44 51.2149 111.36 52.0149 111.2 52.6949H99.2C99.04 52.0149 98.96 51.2149 98.96 50.2949C98.96 49.3349 99.04 48.5349 99.2 47.8949H96.8C96.64 47.2149 96.56 46.4149 96.56 45.4949C96.56 44.5349 96.64 43.7349 96.8 43.0949H94.4C94.24 42.4149 94.16 41.6149 94.16 40.6949C94.16 39.7349 94.24 38.9349 94.4 38.2949C94.24 37.6149 94.16 36.8149 94.16 35.8949C94.16 34.9349 94.24 34.1349 94.4 33.4949C94.24 32.8149 94.16 32.0149 94.16 31.0949C94.16 30.1349 94.24 29.3349 94.4 28.6949H96.8C96.64 28.0149 96.56 27.2149 96.56 26.2949C96.56 25.3349 96.64 24.5349 96.8 23.8949H99.2C99.04 23.2149 98.96 22.4149 98.96 21.4949C98.96 20.5349 99.04 19.7349 99.2 19.0949H111.2C111.36 19.7349 111.44 20.5349 111.44 21.4949C111.44 22.4149 111.36 23.2149 111.2 23.8949H113.6C113.76 24.5349 113.84 25.3349 113.84 26.2949C113.84 27.2149 113.76 28.0149 113.6 28.6949H108.8C108.64 28.0149 108.56 27.2149 108.56 26.2949C108.56 25.3349 108.64 24.5349 108.8 23.8949H101.6C101.76 24.5349 101.84 25.3349 101.84 26.2949C101.84 27.2149 101.76 28.0149 101.6 28.6949H99.2C99.36 29.3349 99.44 30.1349 99.44 31.0949C99.44 32.0149 99.36 32.8149 99.2 33.4949C99.36 34.1349 99.44 34.9349 99.44 35.8949C99.44 36.8149 99.36 37.6149 99.2 38.2949C99.36 38.9349 99.44 39.7349 99.44 40.6949C99.44 41.6149 99.36 42.4149 99.2 43.0949H101.6C101.76 43.7349 101.84 44.5349 101.84 45.4949C101.84 46.4149 101.76 47.2149 101.6 47.8949H108.8C108.64 47.2149 108.56 46.4149 108.56 45.4949C108.56 44.5349 108.64 43.7349 108.8 43.0949H113.6ZM123.463 31.0949C123.463 32.0149 123.383 32.8149 123.223 33.4949H125.023C125.183 34.1349 125.263 34.9349 125.263 35.8949C125.263 36.8149 125.183 37.6149 125.023 38.2949H123.223C123.383 38.9349 123.463 39.7349 123.463 40.6949C123.463 41.6149 123.383 42.4149 123.223 43.0949C123.383 43.7349 123.463 44.5349 123.463 45.4949C123.463 46.4149 123.383 47.2149 123.223 47.8949C123.383 48.5349 123.463 49.3349 123.463 50.2949C123.463 51.2149 123.383 52.0149 123.223 52.6949H118.423C118.263 52.0149 118.183 51.2149 118.183 50.2949C118.183 49.3349 118.263 48.5349 118.423 47.8949C118.263 47.2149 118.183 46.4149 118.183 45.4949C118.183 44.5349 118.263 43.7349 118.423 43.0949C118.263 42.4149 118.183 41.6149 118.183 40.6949C118.183 39.7349 118.263 38.9349 118.423 38.2949C118.263 37.6149 118.183 36.8149 118.183 35.8949C118.183 34.9349 118.263 34.1349 118.423 33.4949C118.263 32.8149 118.183 32.0149 118.183 31.0949C118.183 30.1349 118.263 29.3349 118.423 28.6949C118.263 28.0149 118.183 27.2149 118.183 26.2949C118.183 25.3349 118.263 24.5349 118.423 23.8949C118.263 23.2149 118.183 22.4149 118.183 21.4949C118.183 20.5349 118.263 19.7349 118.423 19.0949H123.223C123.383 19.7349 123.463 20.5349 123.463 21.4949C123.463 22.4149 123.383 23.2149 123.223 23.8949C123.383 24.5349 123.463 25.3349 123.463 26.2949C123.463 27.2149 123.383 28.0149 123.223 28.6949C123.383 29.3349 123.463 30.1349 123.463 31.0949ZM137.623 38.2949C137.783 38.9349 137.863 39.7349 137.863 40.6949C137.863 41.6149 137.783 42.4149 137.623 43.0949C137.783 43.7349 137.863 44.5349 137.863 45.4949C137.863 46.4149 137.783 47.2149 137.623 47.8949C137.783 48.5349 137.863 49.3349 137.863 50.2949C137.863 51.2149 137.783 52.0149 137.623 52.6949H132.823C132.663 52.0149 132.583 51.2149 132.583 50.2949C132.583 49.3349 132.663 48.5349 132.823 47.8949C132.663 47.2149 132.583 46.4149 132.583 45.4949C132.583 44.5349 132.663 43.7349 132.823 43.0949C132.663 42.4149 132.583 41.6149 132.583 40.6949C132.583 39.7349 132.663 38.9349 132.823 38.2949C132.663 37.6149 132.583 36.8149 132.583 35.8949C132.583 34.9349 132.663 34.1349 132.823 33.4949H125.023C124.863 32.8149 124.783 32.0149 124.783 31.0949C124.783 30.1349 124.863 29.3349 125.023 28.6949H134.623C134.783 29.3349 134.863 30.1349 134.863 31.0949C134.863 32.0149 134.783 32.8149 134.623 33.4949H137.623C137.783 34.1349 137.863 34.9349 137.863 35.8949C137.863 36.8149 137.783 37.6149 137.623 38.2949ZM161.887 35.8949C161.887 36.8149 161.807 37.6149 161.647 38.2949C161.807 38.9349 161.887 39.7349 161.887 40.6949C161.887 41.6149 161.807 42.4149 161.647 43.0949H149.047C149.207 43.7349 149.287 44.5349 149.287 45.4949C149.287 46.4149 149.207 47.2149 149.047 47.8949H159.247C159.407 48.5349 159.487 49.3349 159.487 50.2949C159.487 51.2149 159.407 52.0149 159.247 52.6949H147.247C147.087 52.0149 147.007 51.2149 147.007 50.2949C147.007 49.3349 147.087 48.5349 147.247 47.8949H144.247C144.087 47.2149 144.007 46.4149 144.007 45.4949C144.007 44.5349 144.087 43.7349 144.247 43.0949H142.447C142.287 42.4149 142.207 41.6149 142.207 40.6949C142.207 39.7349 142.287 38.9349 142.447 38.2949H144.247C144.087 37.6149 144.007 36.8149 144.007 35.8949C144.007 34.9349 144.087 34.1349 144.247 33.4949H147.247C147.087 32.8149 147.007 32.0149 147.007 31.0949C147.007 30.1349 147.087 29.3349 147.247 28.6949H159.247C159.407 29.3349 159.487 30.1349 159.487 31.0949C159.487 32.0149 159.407 32.8149 159.247 33.4949H161.647C161.807 34.1349 161.887 34.9349 161.887 35.8949ZM156.847 38.2949C156.687 37.6149 156.607 36.8149 156.607 35.8949C156.607 34.9349 156.687 34.1349 156.847 33.4949H149.047C149.207 34.1349 149.287 34.9349 149.287 35.8949C149.287 36.8149 149.207 37.6149 149.047 38.2949H156.847ZM184.71 45.4949C184.71 46.4149 184.63 47.2149 184.47 47.8949H182.07C182.23 48.5349 182.31 49.3349 182.31 50.2949C182.31 51.2149 182.23 52.0149 182.07 52.6949H168.87C168.71 52.0149 168.63 51.2149 168.63 50.2949C168.63 49.3349 168.71 48.5349 168.87 47.8949H179.67C179.51 47.2149 179.43 46.4149 179.43 45.4949C179.43 44.5349 179.51 43.7349 179.67 43.0949H170.07C169.91 42.4149 169.83 41.6149 169.83 40.6949C169.83 39.7349 169.91 38.9349 170.07 38.2949H167.67C167.51 37.6149 167.43 36.8149 167.43 35.8949C167.43 34.9349 167.51 34.1349 167.67 33.4949H170.07C169.91 32.8149 169.83 32.0149 169.83 31.0949C169.83 30.1349 169.91 29.3349 170.07 28.6949H183.27C183.43 29.3349 183.51 30.1349 183.51 31.0949C183.51 32.0149 183.43 32.8149 183.27 33.4949H172.47C172.63 34.1349 172.71 34.9349 172.71 35.8949C172.71 36.8149 172.63 37.6149 172.47 38.2949H182.07C182.23 38.9349 182.31 39.7349 182.31 40.6949C182.31 41.6149 182.23 42.4149 182.07 43.0949H184.47C184.63 43.7349 184.71 44.5349 184.71 45.4949ZM208.734 45.4949C208.734 46.4149 208.654 47.2149 208.494 47.8949H206.094C206.254 48.5349 206.334 49.3349 206.334 50.2949C206.334 51.2149 206.254 52.0149 206.094 52.6949H192.894C192.734 52.0149 192.654 51.2149 192.654 50.2949C192.654 49.3349 192.734 48.5349 192.894 47.8949H203.694C203.534 47.2149 203.454 46.4149 203.454 45.4949C203.454 44.5349 203.534 43.7349 203.694 43.0949H194.094C193.934 42.4149 193.854 41.6149 193.854 40.6949C193.854 39.7349 193.934 38.9349 194.094 38.2949H191.694C191.534 37.6149 191.454 36.8149 191.454 35.8949C191.454 34.9349 191.534 34.1349 191.694 33.4949H194.094C193.934 32.8149 193.854 32.0149 193.854 31.0949C193.854 30.1349 193.934 29.3349 194.094 28.6949H207.294C207.454 29.3349 207.534 30.1349 207.534 31.0949C207.534 32.0149 207.454 32.8149 207.294 33.4949H196.494C196.654 34.1349 196.734 34.9349 196.734 35.8949C196.734 36.8149 196.654 37.6149 196.494 38.2949H206.094C206.254 38.9349 206.334 39.7349 206.334 40.6949C206.334 41.6149 206.254 42.4149 206.094 43.0949H208.494C208.654 43.7349 208.734 44.5349 208.734 45.4949Z" fill="white"/>
<path d="M245.1 24.3949C245.26 25.0349 245.34 25.8349 245.34 26.7949C245.34 27.7149 245.26 28.5149 245.1 29.1949C245.26 29.8349 245.34 30.6349 245.34 31.5949C245.34 32.5149 245.26 33.3149 245.1 33.9949C245.26 34.6349 245.34 35.4349 245.34 36.3949C245.34 37.3149 245.26 38.1149 245.1 38.7949C245.26 39.4349 245.34 40.2349 245.34 41.1949C245.34 42.1149 245.26 42.9149 245.1 43.5949C245.26 44.2349 245.34 45.0349 245.34 45.9949C245.34 46.9149 245.26 47.7149 245.1 48.3949C245.26 49.0349 245.34 49.8349 245.34 50.7949C245.34 51.7149 245.26 52.5149 245.1 53.1949H240.3C240.14 52.5149 240.06 51.7149 240.06 50.7949C240.06 49.8349 240.14 49.0349 240.3 48.3949C240.14 47.7149 240.06 46.9149 240.06 45.9949C240.06 45.0349 240.14 44.2349 240.3 43.5949C240.14 42.9149 240.06 42.1149 240.06 41.1949C240.06 40.2349 240.14 39.4349 240.3 38.7949H230.7C230.86 39.4349 230.94 40.2349 230.94 41.1949C230.94 42.1149 230.86 42.9149 230.7 43.5949C230.86 44.2349 230.94 45.0349 230.94 45.9949C230.94 46.9149 230.86 47.7149 230.7 48.3949C230.86 49.0349 230.94 49.8349 230.94 50.7949C230.94 51.7149 230.86 52.5149 230.7 53.1949H225.9C225.74 52.5149 225.66 51.7149 225.66 50.7949C225.66 49.8349 225.74 49.0349 225.9 48.3949C225.74 47.7149 225.66 46.9149 225.66 45.9949C225.66 45.0349 225.74 44.2349 225.9 43.5949C225.74 42.9149 225.66 42.1149 225.66 41.1949C225.66 40.2349 225.74 39.4349 225.9 38.7949C225.74 38.1149 225.66 37.3149 225.66 36.3949C225.66 35.4349 225.74 34.6349 225.9 33.9949C225.74 33.3149 225.66 32.5149 225.66 31.5949C225.66 30.6349 225.74 29.8349 225.9 29.1949C225.74 28.5149 225.66 27.7149 225.66 26.7949C225.66 25.8349 225.74 25.0349 225.9 24.3949C225.74 23.7149 225.66 22.9149 225.66 21.9949C225.66 21.0349 225.74 20.2349 225.9 19.5949H230.7C230.86 20.2349 230.94 21.0349 230.94 21.9949C230.94 22.9149 230.86 23.7149 230.7 24.3949C230.86 25.0349 230.94 25.8349 230.94 26.7949C230.94 27.7149 230.86 28.5149 230.7 29.1949C230.86 29.8349 230.94 30.6349 230.94 31.5949C230.94 32.5149 230.86 33.3149 230.7 33.9949H240.3C240.14 33.3149 240.06 32.5149 240.06 31.5949C240.06 30.6349 240.14 29.8349 240.3 29.1949C240.14 28.5149 240.06 27.7149 240.06 26.7949C240.06 25.8349 240.14 25.0349 240.3 24.3949C240.14 23.7149 240.06 22.9149 240.06 21.9949C240.06 21.0349 240.14 20.2349 240.3 19.5949H245.1C245.26 20.2349 245.34 21.0349 245.34 21.9949C245.34 22.9149 245.26 23.7149 245.1 24.3949ZM269.123 48.3949C269.283 49.0349 269.363 49.8349 269.363 50.7949C269.363 51.7149 269.283 52.5149 269.123 53.1949H264.323C264.163 52.5149 264.083 51.7149 264.083 50.7949C264.083 49.8349 264.163 49.0349 264.323 48.3949H261.923C261.763 47.7149 261.683 46.9149 261.683 45.9949C261.683 45.0349 261.763 44.2349 261.923 43.5949H254.723C254.883 44.2349 254.963 45.0349 254.963 45.9949C254.963 46.9149 254.883 47.7149 254.723 48.3949H261.923C262.083 49.0349 262.163 49.8349 262.163 50.7949C262.163 51.7149 262.083 52.5149 261.923 53.1949H252.323C252.163 52.5149 252.083 51.7149 252.083 50.7949C252.083 49.8349 252.163 49.0349 252.323 48.3949H249.923C249.763 47.7149 249.683 46.9149 249.683 45.9949C249.683 45.0349 249.763 44.2349 249.923 43.5949H252.323C252.163 42.9149 252.083 42.1149 252.083 41.1949C252.083 40.2349 252.163 39.4349 252.323 38.7949H261.923C261.763 38.1149 261.683 37.3149 261.683 36.3949C261.683 35.4349 261.763 34.6349 261.923 33.9949H253.523C253.363 33.3149 253.283 32.5149 253.283 31.5949C253.283 30.6349 253.363 29.8349 253.523 29.1949H264.323C264.483 29.8349 264.563 30.6349 264.563 31.5949C264.563 32.5149 264.483 33.3149 264.323 33.9949H266.723C266.883 34.6349 266.963 35.4349 266.963 36.3949C266.963 37.3149 266.883 38.1149 266.723 38.7949C266.883 39.4349 266.963 40.2349 266.963 41.1949C266.963 42.1149 266.883 42.9149 266.723 43.5949C266.883 44.2349 266.963 45.0349 266.963 45.9949C266.963 46.9149 266.883 47.7149 266.723 48.3949H269.123ZM293.147 43.5949C293.307 44.2349 293.387 45.0349 293.387 45.9949C293.387 46.9149 293.307 47.7149 293.147 48.3949H290.747C290.907 49.0349 290.987 49.8349 290.987 50.7949C290.987 51.7149 290.907 52.5149 290.747 53.1949H278.747C278.587 52.5149 278.507 51.7149 278.507 50.7949C278.507 49.8349 278.587 49.0349 278.747 48.3949H276.347C276.187 47.7149 276.107 46.9149 276.107 45.9949C276.107 45.0349 276.187 44.2349 276.347 43.5949H273.947C273.787 42.9149 273.707 42.1149 273.707 41.1949C273.707 40.2349 273.787 39.4349 273.947 38.7949H276.347C276.187 38.1149 276.107 37.3149 276.107 36.3949C276.107 35.4349 276.187 34.6349 276.347 33.9949H278.747C278.587 33.3149 278.507 32.5149 278.507 31.5949C278.507 30.6349 278.587 29.8349 278.747 29.1949H290.747C290.907 29.8349 290.987 30.6349 290.987 31.5949C290.987 32.5149 290.907 33.3149 290.747 33.9949H293.147C293.307 34.6349 293.387 35.4349 293.387 36.3949C293.387 37.3149 293.307 38.1149 293.147 38.7949H288.347C288.187 38.1149 288.107 37.3149 288.107 36.3949C288.107 35.4349 288.187 34.6349 288.347 33.9949H281.147C281.307 34.6349 281.387 35.4349 281.387 36.3949C281.387 37.3149 281.307 38.1149 281.147 38.7949H278.747C278.907 39.4349 278.987 40.2349 278.987 41.1949C278.987 42.1149 278.907 42.9149 278.747 43.5949H281.147C281.307 44.2349 281.387 45.0349 281.387 45.9949C281.387 46.9149 281.307 47.7149 281.147 48.3949H288.347C288.187 47.7149 288.107 46.9149 288.107 45.9949C288.107 45.0349 288.187 44.2349 288.347 43.5949H293.147ZM317.17 48.3949C317.33 49.0349 317.41 49.8349 317.41 50.7949C317.41 51.7149 317.33 52.5149 317.17 53.1949H308.77C308.61 52.5149 308.53 51.7149 308.53 50.7949C308.53 49.8349 308.61 49.0349 308.77 48.3949H306.37C306.21 47.7149 306.13 46.9149 306.13 45.9949C306.13 45.0349 306.21 44.2349 306.37 43.5949H302.77C302.93 44.2349 303.01 45.0349 303.01 45.9949C303.01 46.9149 302.93 47.7149 302.77 48.3949C302.93 49.0349 303.01 49.8349 303.01 50.7949C303.01 51.7149 302.93 52.5149 302.77 53.1949H297.97C297.81 52.5149 297.73 51.7149 297.73 50.7949C297.73 49.8349 297.81 49.0349 297.97 48.3949C297.81 47.7149 297.73 46.9149 297.73 45.9949C297.73 45.0349 297.81 44.2349 297.97 43.5949C297.81 42.9149 297.73 42.1149 297.73 41.1949C297.73 40.2349 297.81 39.4349 297.97 38.7949C297.81 38.1149 297.73 37.3149 297.73 36.3949C297.73 35.4349 297.81 34.6349 297.97 33.9949C297.81 33.3149 297.73 32.5149 297.73 31.5949C297.73 30.6349 297.81 29.8349 297.97 29.1949C297.81 28.5149 297.73 27.7149 297.73 26.7949C297.73 25.8349 297.81 25.0349 297.97 24.3949C297.81 23.7149 297.73 22.9149 297.73 21.9949C297.73 21.0349 297.81 20.2349 297.97 19.5949H302.77C302.93 20.2349 303.01 21.0349 303.01 21.9949C303.01 22.9149 302.93 23.7149 302.77 24.3949C302.93 25.0349 303.01 25.8349 303.01 26.7949C303.01 27.7149 302.93 28.5149 302.77 29.1949C302.93 29.8349 303.01 30.6349 303.01 31.5949C303.01 32.5149 302.93 33.3149 302.77 33.9949C302.93 34.6349 303.01 35.4349 303.01 36.3949C303.01 37.3149 302.93 38.1149 302.77 38.7949H306.37C306.21 38.1149 306.13 37.3149 306.13 36.3949C306.13 35.4349 306.21 34.6349 306.37 33.9949H308.77C308.61 33.3149 308.53 32.5149 308.53 31.5949C308.53 30.6349 308.61 29.8349 308.77 29.1949H315.97C316.13 29.8349 316.21 30.6349 316.21 31.5949C316.21 32.5149 316.13 33.3149 315.97 33.9949H311.17C311.33 34.6349 311.41 35.4349 311.41 36.3949C311.41 37.3149 311.33 38.1149 311.17 38.7949H308.77C308.93 39.4349 309.01 40.2349 309.01 41.1949C309.01 42.1149 308.93 42.9149 308.77 43.5949H311.17C311.33 44.2349 311.41 45.0349 311.41 45.9949C311.41 46.9149 311.33 47.7149 311.17 48.3949H317.17ZM340.234 45.9949C340.234 46.9149 340.154 47.7149 339.994 48.3949H337.594C337.754 49.0349 337.834 49.8349 337.834 50.7949C337.834 51.7149 337.754 52.5149 337.594 53.1949H324.394C324.234 52.5149 324.154 51.7149 324.154 50.7949C324.154 49.8349 324.234 49.0349 324.394 48.3949H335.194C335.034 47.7149 334.954 46.9149 334.954 45.9949C334.954 45.0349 335.034 44.2349 335.194 43.5949H325.594C325.434 42.9149 325.354 42.1149 325.354 41.1949C325.354 40.2349 325.434 39.4349 325.594 38.7949H323.194C323.034 38.1149 322.954 37.3149 322.954 36.3949C322.954 35.4349 323.034 34.6349 323.194 33.9949H325.594C325.434 33.3149 325.354 32.5149 325.354 31.5949C325.354 30.6349 325.434 29.8349 325.594 29.1949H338.794C338.954 29.8349 339.034 30.6349 339.034 31.5949C339.034 32.5149 338.954 33.3149 338.794 33.9949H327.994C328.154 34.6349 328.234 35.4349 328.234 36.3949C328.234 37.3149 328.154 38.1149 327.994 38.7949H337.594C337.754 39.4349 337.834 40.2349 337.834 41.1949C337.834 42.1149 337.754 42.9149 337.594 43.5949H339.994C340.154 44.2349 340.234 45.0349 340.234 45.9949Z" fill="white"/>
</svg>
