<svg width="361" height="71" viewBox="0 0 361 71" fill="none" xmlns="http://www.w3.org/2000/svg">
<path d="M72.3268 70.3899V55.951C72.3268 55.951 42.366 25.8096 42.1855 24.9072C41.9781 23.8705 42.4635 22.8244 43.2684 22.0194C44.0734 21.2145 45.075 20.8467 46.1562 21.117C46.8782 21.2975 62.2196 37.1803 62.2196 37.1803H72.3268V9.18875L81.9999 0H44.7123C44.7123 0 34.0636 0 25.4002 8.66337C18.0002 16.0633 18.0002 24.7267 18.0002 24.7267V43.1364L44.7123 70.3899H72.3268Z" fill="black"/>
<path d="M65.8947 16.7615C67.2089 19.4017 65.3015 24.7169 65.1154 24.1585C64.8211 23.2755 63.9381 21.5096 63.3495 20.6267C62.4822 19.3259 61.5723 18.5689 61.8488 17.0476C62.2177 15.0172 64.5806 14.1214 65.8947 16.7615Z" fill="black"/>
<path d="M113.6 43.0948C113.76 43.7348 113.84 44.5348 113.84 45.4948C113.84 46.4148 113.76 47.2148 113.6 47.8948H111.2C111.36 48.5348 111.44 49.3348 111.44 50.2948C111.44 51.2148 111.36 52.0148 111.2 52.6948H99.1998C99.0398 52.0148 98.9598 51.2148 98.9598 50.2948C98.9598 49.3348 99.0398 48.5348 99.1998 47.8948H96.7998C96.6398 47.2148 96.5598 46.4148 96.5598 45.4948C96.5598 44.5348 96.6398 43.7348 96.7998 43.0948H94.3998C94.2398 42.4148 94.1598 41.6148 94.1598 40.6948C94.1598 39.7348 94.2398 38.9348 94.3998 38.2948C94.2398 37.6148 94.1598 36.8148 94.1598 35.8948C94.1598 34.9348 94.2398 34.1348 94.3998 33.4948C94.2398 32.8148 94.1598 32.0148 94.1598 31.0948C94.1598 30.1348 94.2398 29.3348 94.3998 28.6948H96.7998C96.6398 28.0148 96.5598 27.2148 96.5598 26.2948C96.5598 25.3348 96.6398 24.5348 96.7998 23.8948H99.1998C99.0398 23.2148 98.9598 22.4148 98.9598 21.4948C98.9598 20.5348 99.0398 19.7348 99.1998 19.0948H111.2C111.36 19.7348 111.44 20.5348 111.44 21.4948C111.44 22.4148 111.36 23.2148 111.2 23.8948H113.6C113.76 24.5348 113.84 25.3348 113.84 26.2948C113.84 27.2148 113.76 28.0148 113.6 28.6948H108.8C108.64 28.0148 108.56 27.2148 108.56 26.2948C108.56 25.3348 108.64 24.5348 108.8 23.8948H101.6C101.76 24.5348 101.84 25.3348 101.84 26.2948C101.84 27.2148 101.76 28.0148 101.6 28.6948H99.1998C99.3598 29.3348 99.4398 30.1348 99.4398 31.0948C99.4398 32.0148 99.3598 32.8148 99.1998 33.4948C99.3598 34.1348 99.4398 34.9348 99.4398 35.8948C99.4398 36.8148 99.3598 37.6148 99.1998 38.2948C99.3598 38.9348 99.4398 39.7348 99.4398 40.6948C99.4398 41.6148 99.3598 42.4148 99.1998 43.0948H101.6C101.76 43.7348 101.84 44.5348 101.84 45.4948C101.84 46.4148 101.76 47.2148 101.6 47.8948H108.8C108.64 47.2148 108.56 46.4148 108.56 45.4948C108.56 44.5348 108.64 43.7348 108.8 43.0948H113.6ZM123.463 31.0948C123.463 32.0148 123.383 32.8148 123.223 33.4948H125.023C125.183 34.1348 125.263 34.9348 125.263 35.8948C125.263 36.8148 125.183 37.6148 125.023 38.2948H123.223C123.383 38.9348 123.463 39.7348 123.463 40.6948C123.463 41.6148 123.383 42.4148 123.223 43.0948C123.383 43.7348 123.463 44.5348 123.463 45.4948C123.463 46.4148 123.383 47.2148 123.223 47.8948C123.383 48.5348 123.463 49.3348 123.463 50.2948C123.463 51.2148 123.383 52.0148 123.223 52.6948H118.423C118.263 52.0148 118.183 51.2148 118.183 50.2948C118.183 49.3348 118.263 48.5348 118.423 47.8948C118.263 47.2148 118.183 46.4148 118.183 45.4948C118.183 44.5348 118.263 43.7348 118.423 43.0948C118.263 42.4148 118.183 41.6148 118.183 40.6948C118.183 39.7348 118.263 38.9348 118.423 38.2948C118.263 37.6148 118.183 36.8148 118.183 35.8948C118.183 34.9348 118.263 34.1348 118.423 33.4948C118.263 32.8148 118.183 32.0148 118.183 31.0948C118.183 30.1348 118.263 29.3348 118.423 28.6948C118.263 28.0148 118.183 27.2148 118.183 26.2948C118.183 25.3348 118.263 24.5348 118.423 23.8948C118.263 23.2148 118.183 22.4148 118.183 21.4948C118.183 20.5348 118.263 19.7348 118.423 19.0948H123.223C123.383 19.7348 123.463 20.5348 123.463 21.4948C123.463 22.4148 123.383 23.2148 123.223 23.8948C123.383 24.5348 123.463 25.3348 123.463 26.2948C123.463 27.2148 123.383 28.0148 123.223 28.6948C123.383 29.3348 123.463 30.1348 123.463 31.0948ZM137.623 38.2948C137.783 38.9348 137.863 39.7348 137.863 40.6948C137.863 41.6148 137.783 42.4148 137.623 43.0948C137.783 43.7348 137.863 44.5348 137.863 45.4948C137.863 46.4148 137.783 47.2148 137.623 47.8948C137.783 48.5348 137.863 49.3348 137.863 50.2948C137.863 51.2148 137.783 52.0148 137.623 52.6948H132.823C132.663 52.0148 132.583 51.2148 132.583 50.2948C132.583 49.3348 132.663 48.5348 132.823 47.8948C132.663 47.2148 132.583 46.4148 132.583 45.4948C132.583 44.5348 132.663 43.7348 132.823 43.0948C132.663 42.4148 132.583 41.6148 132.583 40.6948C132.583 39.7348 132.663 38.9348 132.823 38.2948C132.663 37.6148 132.583 36.8148 132.583 35.8948C132.583 34.9348 132.663 34.1348 132.823 33.4948H125.023C124.863 32.8148 124.783 32.0148 124.783 31.0948C124.783 30.1348 124.863 29.3348 125.023 28.6948H134.623C134.783 29.3348 134.863 30.1348 134.863 31.0948C134.863 32.0148 134.783 32.8148 134.623 33.4948H137.623C137.783 34.1348 137.863 34.9348 137.863 35.8948C137.863 36.8148 137.783 37.6148 137.623 38.2948ZM161.887 35.8948C161.887 36.8148 161.807 37.6148 161.647 38.2948C161.807 38.9348 161.887 39.7348 161.887 40.6948C161.887 41.6148 161.807 42.4148 161.647 43.0948H149.047C149.207 43.7348 149.287 44.5348 149.287 45.4948C149.287 46.4148 149.207 47.2148 149.047 47.8948H159.247C159.407 48.5348 159.487 49.3348 159.487 50.2948C159.487 51.2148 159.407 52.0148 159.247 52.6948H147.247C147.087 52.0148 147.007 51.2148 147.007 50.2948C147.007 49.3348 147.087 48.5348 147.247 47.8948H144.247C144.087 47.2148 144.007 46.4148 144.007 45.4948C144.007 44.5348 144.087 43.7348 144.247 43.0948H142.447C142.287 42.4148 142.207 41.6148 142.207 40.6948C142.207 39.7348 142.287 38.9348 142.447 38.2948H144.247C144.087 37.6148 144.007 36.8148 144.007 35.8948C144.007 34.9348 144.087 34.1348 144.247 33.4948H147.247C147.087 32.8148 147.007 32.0148 147.007 31.0948C147.007 30.1348 147.087 29.3348 147.247 28.6948H159.247C159.407 29.3348 159.487 30.1348 159.487 31.0948C159.487 32.0148 159.407 32.8148 159.247 33.4948H161.647C161.807 34.1348 161.887 34.9348 161.887 35.8948ZM156.847 38.2948C156.687 37.6148 156.607 36.8148 156.607 35.8948C156.607 34.9348 156.687 34.1348 156.847 33.4948H149.047C149.207 34.1348 149.287 34.9348 149.287 35.8948C149.287 36.8148 149.207 37.6148 149.047 38.2948H156.847ZM184.71 45.4948C184.71 46.4148 184.63 47.2148 184.47 47.8948H182.07C182.23 48.5348 182.31 49.3348 182.31 50.2948C182.31 51.2148 182.23 52.0148 182.07 52.6948H168.87C168.71 52.0148 168.63 51.2148 168.63 50.2948C168.63 49.3348 168.71 48.5348 168.87 47.8948H179.67C179.51 47.2148 179.43 46.4148 179.43 45.4948C179.43 44.5348 179.51 43.7348 179.67 43.0948H170.07C169.91 42.4148 169.83 41.6148 169.83 40.6948C169.83 39.7348 169.91 38.9348 170.07 38.2948H167.67C167.51 37.6148 167.43 36.8148 167.43 35.8948C167.43 34.9348 167.51 34.1348 167.67 33.4948H170.07C169.91 32.8148 169.83 32.0148 169.83 31.0948C169.83 30.1348 169.91 29.3348 170.07 28.6948H183.27C183.43 29.3348 183.51 30.1348 183.51 31.0948C183.51 32.0148 183.43 32.8148 183.27 33.4948H172.47C172.63 34.1348 172.71 34.9348 172.71 35.8948C172.71 36.8148 172.63 37.6148 172.47 38.2948H182.07C182.23 38.9348 182.31 39.7348 182.31 40.6948C182.31 41.6148 182.23 42.4148 182.07 43.0948H184.47C184.63 43.7348 184.71 44.5348 184.71 45.4948ZM208.734 45.4948C208.734 46.4148 208.654 47.2148 208.494 47.8948H206.094C206.254 48.5348 206.334 49.3348 206.334 50.2948C206.334 51.2148 206.254 52.0148 206.094 52.6948H192.894C192.734 52.0148 192.654 51.2148 192.654 50.2948C192.654 49.3348 192.734 48.5348 192.894 47.8948H203.694C203.534 47.2148 203.454 46.4148 203.454 45.4948C203.454 44.5348 203.534 43.7348 203.694 43.0948H194.094C193.934 42.4148 193.854 41.6148 193.854 40.6948C193.854 39.7348 193.934 38.9348 194.094 38.2948H191.694C191.534 37.6148 191.454 36.8148 191.454 35.8948C191.454 34.9348 191.534 34.1348 191.694 33.4948H194.094C193.934 32.8148 193.854 32.0148 193.854 31.0948C193.854 30.1348 193.934 29.3348 194.094 28.6948H207.294C207.454 29.3348 207.534 30.1348 207.534 31.0948C207.534 32.0148 207.454 32.8148 207.294 33.4948H196.494C196.654 34.1348 196.734 34.9348 196.734 35.8948C196.734 36.8148 196.654 37.6148 196.494 38.2948H206.094C206.254 38.9348 206.334 39.7348 206.334 40.6948C206.334 41.6148 206.254 42.4148 206.094 43.0948H208.494C208.654 43.7348 208.734 44.5348 208.734 45.4948Z" fill="black"/>
<path d="M245.1 24.3948C245.26 25.0348 245.34 25.8348 245.34 26.7948C245.34 27.7148 245.26 28.5148 245.1 29.1948C245.26 29.8348 245.34 30.6348 245.34 31.5948C245.34 32.5148 245.26 33.3148 245.1 33.9948C245.26 34.6348 245.34 35.4348 245.34 36.3948C245.34 37.3148 245.26 38.1148 245.1 38.7948C245.26 39.4348 245.34 40.2348 245.34 41.1948C245.34 42.1148 245.26 42.9148 245.1 43.5948C245.26 44.2348 245.34 45.0348 245.34 45.9948C245.34 46.9148 245.26 47.7148 245.1 48.3948C245.26 49.0348 245.34 49.8348 245.34 50.7948C245.34 51.7148 245.26 52.5148 245.1 53.1948H240.3C240.14 52.5148 240.06 51.7148 240.06 50.7948C240.06 49.8348 240.14 49.0348 240.3 48.3948C240.14 47.7148 240.06 46.9148 240.06 45.9948C240.06 45.0348 240.14 44.2348 240.3 43.5948C240.14 42.9148 240.06 42.1148 240.06 41.1948C240.06 40.2348 240.14 39.4348 240.3 38.7948H230.7C230.86 39.4348 230.94 40.2348 230.94 41.1948C230.94 42.1148 230.86 42.9148 230.7 43.5948C230.86 44.2348 230.94 45.0348 230.94 45.9948C230.94 46.9148 230.86 47.7148 230.7 48.3948C230.86 49.0348 230.94 49.8348 230.94 50.7948C230.94 51.7148 230.86 52.5148 230.7 53.1948H225.9C225.74 52.5148 225.66 51.7148 225.66 50.7948C225.66 49.8348 225.74 49.0348 225.9 48.3948C225.74 47.7148 225.66 46.9148 225.66 45.9948C225.66 45.0348 225.74 44.2348 225.9 43.5948C225.74 42.9148 225.66 42.1148 225.66 41.1948C225.66 40.2348 225.74 39.4348 225.9 38.7948C225.74 38.1148 225.66 37.3148 225.66 36.3948C225.66 35.4348 225.74 34.6348 225.9 33.9948C225.74 33.3148 225.66 32.5148 225.66 31.5948C225.66 30.6348 225.74 29.8348 225.9 29.1948C225.74 28.5148 225.66 27.7148 225.66 26.7948C225.66 25.8348 225.74 25.0348 225.9 24.3948C225.74 23.7148 225.66 22.9148 225.66 21.9948C225.66 21.0348 225.74 20.2348 225.9 19.5948H230.7C230.86 20.2348 230.94 21.0348 230.94 21.9948C230.94 22.9148 230.86 23.7148 230.7 24.3948C230.86 25.0348 230.94 25.8348 230.94 26.7948C230.94 27.7148 230.86 28.5148 230.7 29.1948C230.86 29.8348 230.94 30.6348 230.94 31.5948C230.94 32.5148 230.86 33.3148 230.7 33.9948H240.3C240.14 33.3148 240.06 32.5148 240.06 31.5948C240.06 30.6348 240.14 29.8348 240.3 29.1948C240.14 28.5148 240.06 27.7148 240.06 26.7948C240.06 25.8348 240.14 25.0348 240.3 24.3948C240.14 23.7148 240.06 22.9148 240.06 21.9948C240.06 21.0348 240.14 20.2348 240.3 19.5948H245.1C245.26 20.2348 245.34 21.0348 245.34 21.9948C245.34 22.9148 245.26 23.7148 245.1 24.3948ZM269.123 48.3948C269.283 49.0348 269.363 49.8348 269.363 50.7948C269.363 51.7148 269.283 52.5148 269.123 53.1948H264.323C264.163 52.5148 264.083 51.7148 264.083 50.7948C264.083 49.8348 264.163 49.0348 264.323 48.3948H261.923C261.763 47.7148 261.683 46.9148 261.683 45.9948C261.683 45.0348 261.763 44.2348 261.923 43.5948H254.723C254.883 44.2348 254.963 45.0348 254.963 45.9948C254.963 46.9148 254.883 47.7148 254.723 48.3948H261.923C262.083 49.0348 262.163 49.8348 262.163 50.7948C262.163 51.7148 262.083 52.5148 261.923 53.1948H252.323C252.163 52.5148 252.083 51.7148 252.083 50.7948C252.083 49.8348 252.163 49.0348 252.323 48.3948H249.923C249.763 47.7148 249.683 46.9148 249.683 45.9948C249.683 45.0348 249.763 44.2348 249.923 43.5948H252.323C252.163 42.9148 252.083 42.1148 252.083 41.1948C252.083 40.2348 252.163 39.4348 252.323 38.7948H261.923C261.763 38.1148 261.683 37.3148 261.683 36.3948C261.683 35.4348 261.763 34.6348 261.923 33.9948H253.523C253.363 33.3148 253.283 32.5148 253.283 31.5948C253.283 30.6348 253.363 29.8348 253.523 29.1948H264.323C264.483 29.8348 264.563 30.6348 264.563 31.5948C264.563 32.5148 264.483 33.3148 264.323 33.9948H266.723C266.883 34.6348 266.963 35.4348 266.963 36.3948C266.963 37.3148 266.883 38.1148 266.723 38.7948C266.883 39.4348 266.963 40.2348 266.963 41.1948C266.963 42.1148 266.883 42.9148 266.723 43.5948C266.883 44.2348 266.963 45.0348 266.963 45.9948C266.963 46.9148 266.883 47.7148 266.723 48.3948H269.123ZM293.147 43.5948C293.307 44.2348 293.387 45.0348 293.387 45.9948C293.387 46.9148 293.307 47.7148 293.147 48.3948H290.747C290.907 49.0348 290.987 49.8348 290.987 50.7948C290.987 51.7148 290.907 52.5148 290.747 53.1948H278.747C278.587 52.5148 278.507 51.7148 278.507 50.7948C278.507 49.8348 278.587 49.0348 278.747 48.3948H276.347C276.187 47.7148 276.107 46.9148 276.107 45.9948C276.107 45.0348 276.187 44.2348 276.347 43.5948H273.947C273.787 42.9148 273.707 42.1148 273.707 41.1948C273.707 40.2348 273.787 39.4348 273.947 38.7948H276.347C276.187 38.1148 276.107 37.3148 276.107 36.3948C276.107 35.4348 276.187 34.6348 276.347 33.9948H278.747C278.587 33.3148 278.507 32.5148 278.507 31.5948C278.507 30.6348 278.587 29.8348 278.747 29.1948H290.747C290.907 29.8348 290.987 30.6348 290.987 31.5948C290.987 32.5148 290.907 33.3148 290.747 33.9948H293.147C293.307 34.6348 293.387 35.4348 293.387 36.3948C293.387 37.3148 293.307 38.1148 293.147 38.7948H288.347C288.187 38.1148 288.107 37.3148 288.107 36.3948C288.107 35.4348 288.187 34.6348 288.347 33.9948H281.147C281.307 34.6348 281.387 35.4348 281.387 36.3948C281.387 37.3148 281.307 38.1148 281.147 38.7948H278.747C278.907 39.4348 278.987 40.2348 278.987 41.1948C278.987 42.1148 278.907 42.9148 278.747 43.5948H281.147C281.307 44.2348 281.387 45.0348 281.387 45.9948C281.387 46.9148 281.307 47.7148 281.147 48.3948H288.347C288.187 47.7148 288.107 46.9148 288.107 45.9948C288.107 45.0348 288.187 44.2348 288.347 43.5948H293.147ZM317.17 48.3948C317.33 49.0348 317.41 49.8348 317.41 50.7948C317.41 51.7148 317.33 52.5148 317.17 53.1948H308.77C308.61 52.5148 308.53 51.7148 308.53 50.7948C308.53 49.8348 308.61 49.0348 308.77 48.3948H306.37C306.21 47.7148 306.13 46.9148 306.13 45.9948C306.13 45.0348 306.21 44.2348 306.37 43.5948H302.77C302.93 44.2348 303.01 45.0348 303.01 45.9948C303.01 46.9148 302.93 47.7148 302.77 48.3948C302.93 49.0348 303.01 49.8348 303.01 50.7948C303.01 51.7148 302.93 52.5148 302.77 53.1948H297.97C297.81 52.5148 297.73 51.7148 297.73 50.7948C297.73 49.8348 297.81 49.0348 297.97 48.3948C297.81 47.7148 297.73 46.9148 297.73 45.9948C297.73 45.0348 297.81 44.2348 297.97 43.5948C297.81 42.9148 297.73 42.1148 297.73 41.1948C297.73 40.2348 297.81 39.4348 297.97 38.7948C297.81 38.1148 297.73 37.3148 297.73 36.3948C297.73 35.4348 297.81 34.6348 297.97 33.9948C297.81 33.3148 297.73 32.5148 297.73 31.5948C297.73 30.6348 297.81 29.8348 297.97 29.1948C297.81 28.5148 297.73 27.7148 297.73 26.7948C297.73 25.8348 297.81 25.0348 297.97 24.3948C297.81 23.7148 297.73 22.9148 297.73 21.9948C297.73 21.0348 297.81 20.2348 297.97 19.5948H302.77C302.93 20.2348 303.01 21.0348 303.01 21.9948C303.01 22.9148 302.93 23.7148 302.77 24.3948C302.93 25.0348 303.01 25.8348 303.01 26.7948C303.01 27.7148 302.93 28.5148 302.77 29.1948C302.93 29.8348 303.01 30.6348 303.01 31.5948C303.01 32.5148 302.93 33.3148 302.77 33.9948C302.93 34.6348 303.01 35.4348 303.01 36.3948C303.01 37.3148 302.93 38.1148 302.77 38.7948H306.37C306.21 38.1148 306.13 37.3148 306.13 36.3948C306.13 35.4348 306.21 34.6348 306.37 33.9948H308.77C308.61 33.3148 308.53 32.5148 308.53 31.5948C308.53 30.6348 308.61 29.8348 308.77 29.1948H315.97C316.13 29.8348 316.21 30.6348 316.21 31.5948C316.21 32.5148 316.13 33.3148 315.97 33.9948H311.17C311.33 34.6348 311.41 35.4348 311.41 36.3948C311.41 37.3148 311.33 38.1148 311.17 38.7948H308.77C308.93 39.4348 309.01 40.2348 309.01 41.1948C309.01 42.1148 308.93 42.9148 308.77 43.5948H311.17C311.33 44.2348 311.41 45.0348 311.41 45.9948C311.41 46.9148 311.33 47.7148 311.17 48.3948H317.17ZM340.234 45.9948C340.234 46.9148 340.154 47.7148 339.994 48.3948H337.594C337.754 49.0348 337.834 49.8348 337.834 50.7948C337.834 51.7148 337.754 52.5148 337.594 53.1948H324.394C324.234 52.5148 324.154 51.7148 324.154 50.7948C324.154 49.8348 324.234 49.0348 324.394 48.3948H335.194C335.034 47.7148 334.954 46.9148 334.954 45.9948C334.954 45.0348 335.034 44.2348 335.194 43.5948H325.594C325.434 42.9148 325.354 42.1148 325.354 41.1948C325.354 40.2348 325.434 39.4348 325.594 38.7948H323.194C323.034 38.1148 322.954 37.3148 322.954 36.3948C322.954 35.4348 323.034 34.6348 323.194 33.9948H325.594C325.434 33.3148 325.354 32.5148 325.354 31.5948C325.354 30.6348 325.434 29.8348 325.594 29.1948H338.794C338.954 29.8348 339.034 30.6348 339.034 31.5948C339.034 32.5148 338.954 33.3148 338.794 33.9948H327.994C328.154 34.6348 328.234 35.4348 328.234 36.3948C328.234 37.3148 328.154 38.1148 327.994 38.7948H337.594C337.754 39.4348 337.834 40.2348 337.834 41.1948C337.834 42.1148 337.754 42.9148 337.594 43.5948H339.994C340.154 44.2348 340.234 45.0348 340.234 45.9948Z" fill="black"/>
</svg>
